<?xml version="1.0" encoding="UTF-8"?>
<svg version="1.1" viewBox="0 0 196.52 196.52" xmlns="http://www.w3.org/2000/svg">
    <symbol id="fediverse" viewBox="0 0 196.52 196.52">
        <g transform="translate(6.679 -32.496)" shape-rendering="auto">
            <path transform="matrix(.26458 0 0 .26458 -6.679 32.496)" d="m181.13 275.14a68.892 68.892 0 0 1-29.465 29.328l161.76 162.39 38.998-19.764-171.29-171.95zm213.36 214.19-38.998 19.764 81.963 82.283a68.892 68.892 0 0 1 29.471-29.332l-72.436-72.715z" color="#fff" color-rendering="auto" dominant-baseline="auto" image-rendering="auto" solid-color="#fff" style="font-feature-settings:normal;font-variant-alternates:normal;font-variant-caps:normal;font-variant-ligatures:normal;font-variant-numeric:normal;font-variant-position:normal;isolation:auto;mix-blend-mode:normal;shape-padding:0;text-decoration-color:#fff;text-decoration-line:none;text-decoration-style:solid;text-indent:0;text-orientation:mixed;text-transform:none;white-space:normal"/>
            <path transform="matrix(.26458 0 0 .26458 -6.679 32.496)" d="m581.65 339.39-91.576 46.41 6.752 43.189 103.62-52.514a68.892 68.892 0 0 1-18.791-37.086zm-144.74 73.352-216.53 109.73a68.892 68.892 0 0 1 18.795 37.09l204.48-103.63-6.752-43.191z" color="#fff" color-rendering="auto" dominant-baseline="auto" image-rendering="auto" solid-color="#fff" style="font-feature-settings:normal;font-variant-alternates:normal;font-variant-caps:normal;font-variant-ligatures:normal;font-variant-numeric:normal;font-variant-position:normal;isolation:auto;mix-blend-mode:normal;shape-padding:0;text-decoration-color:#fff;text-decoration-line:none;text-decoration-style:solid;text-indent:0;text-orientation:mixed;text-transform:none;white-space:normal"/>
            <path transform="matrix(.26458 0 0 .26458 -6.679 32.496)" d="m367.28 142.44-104.48 203.97 30.848 30.967 110.62-215.96a68.892 68.892 0 0 1-36.99-18.98zm-131.65 257.02-52.922 103.31a68.892 68.892 0 0 1 36.986 18.979l46.781-91.328-30.846-30.965z" color="#fff" color-rendering="auto" dominant-baseline="auto" image-rendering="auto" solid-color="#fff" style="font-feature-settings:normal;font-variant-alternates:normal;font-variant-caps:normal;font-variant-ligatures:normal;font-variant-numeric:normal;font-variant-position:normal;isolation:auto;mix-blend-mode:normal;shape-padding:0;text-decoration-color:#fff;text-decoration-line:none;text-decoration-style:solid;text-indent:0;text-orientation:mixed;text-transform:none;white-space:normal"/>
            <path transform="matrix(.26458 0 0 .26458 -6.679 32.496)" d="m150.77 304.92a68.892 68.892 0 0 1-34.416 7.1953 68.892 68.892 0 0 1-6.6504-0.69531l30.902 197.66a68.892 68.892 0 0 1 34.416-7.1953 68.892 68.892 0 0 1 6.6465 0.69531l-30.898-197.66z" color="#fff" color-rendering="auto" dominant-baseline="auto" image-rendering="auto" solid-color="#fff" style="font-feature-settings:normal;font-variant-alternates:normal;font-variant-caps:normal;font-variant-ligatures:normal;font-variant-numeric:normal;font-variant-position:normal;isolation:auto;mix-blend-mode:normal;shape-padding:0;text-decoration-color:#fff;text-decoration-line:none;text-decoration-style:solid;text-indent:0;text-orientation:mixed;text-transform:none;white-space:normal"/>
            <path transform="matrix(.26458 0 0 .26458 -6.679 32.496)" d="m239.34 560.54a68.892 68.892 0 0 1 0.7207 13.877 68.892 68.892 0 0 1-7.2676 27.18l197.63 31.713a68.892 68.892 0 0 1-0.72266-13.879 68.892 68.892 0 0 1 7.2695-27.178l-197.63-31.713z" color="#fff" color-rendering="auto" dominant-baseline="auto" image-rendering="auto" solid-color="#fff" style="font-feature-settings:normal;font-variant-alternates:normal;font-variant-caps:normal;font-variant-ligatures:normal;font-variant-numeric:normal;font-variant-position:normal;isolation:auto;mix-blend-mode:normal;shape-padding:0;text-decoration-color:#fff;text-decoration-line:none;text-decoration-style:solid;text-indent:0;text-orientation:mixed;text-transform:none;white-space:normal"/>
            <path transform="matrix(.26458 0 0 .26458 -6.679 32.496)" d="m601.13 377.2-91.219 178.08a68.892 68.892 0 0 1 36.994 18.982l91.217-178.08a68.892 68.892 0 0 1-36.992-18.984z" color="#fff" color-rendering="auto" dominant-baseline="auto" image-rendering="auto" solid-color="#fff" style="font-feature-settings:normal;font-variant-alternates:normal;font-variant-caps:normal;font-variant-ligatures:normal;font-variant-numeric:normal;font-variant-position:normal;isolation:auto;mix-blend-mode:normal;shape-padding:0;text-decoration-color:#fff;text-decoration-line:none;text-decoration-style:solid;text-indent:0;text-orientation:mixed;text-transform:none;white-space:normal"/>
            <path transform="matrix(.26458 0 0 .26458 -6.679 32.496)" d="m476.72 125.33a68.892 68.892 0 0 1-29.471 29.332l141.27 141.81a68.892 68.892 0 0 1 29.469-29.332l-141.26-141.81z" color="#fff" color-rendering="auto" dominant-baseline="auto" image-rendering="auto" solid-color="#fff" style="font-feature-settings:normal;font-variant-alternates:normal;font-variant-caps:normal;font-variant-ligatures:normal;font-variant-numeric:normal;font-variant-position:normal;isolation:auto;mix-blend-mode:normal;shape-padding:0;text-decoration-color:#fff;text-decoration-line:none;text-decoration-style:solid;text-indent:0;text-orientation:mixed;text-transform:none;white-space:normal"/>
            <path transform="matrix(.26458 0 0 .26458 -6.679 32.496)" d="m347.79 104.63-178.58 90.498a68.892 68.892 0 0 1 18.793 37.086l178.57-90.502a68.892 68.892 0 0 1-18.791-37.082z" color="#fff" color-rendering="auto" dominant-baseline="auto" image-rendering="auto" solid-color="#fff" style="font-feature-settings:normal;font-variant-alternates:normal;font-variant-caps:normal;font-variant-ligatures:normal;font-variant-numeric:normal;font-variant-position:normal;isolation:auto;mix-blend-mode:normal;shape-padding:0;text-decoration-color:#fff;text-decoration-line:none;text-decoration-style:solid;text-indent:0;text-orientation:mixed;text-transform:none;white-space:normal"/>
            <path transform="matrix(.26458 0 0 .26458 -6.679 32.496)" d="m446.93 154.83a68.892 68.892 0 0 1-34.982 7.4824 68.892 68.892 0 0 1-6.0293-0.63281l15.818 101.29 43.162 6.9258-17.969-115.07zm-16 167.03 37.4 239.48a68.892 68.892 0 0 1 33.914-6.9434 68.892 68.892 0 0 1 7.207 0.79101l-35.357-226.41-43.164-6.9238z" color="#fff" color-rendering="auto" dominant-baseline="auto" image-rendering="auto" solid-color="#fff" style="font-feature-settings:normal;font-variant-alternates:normal;font-variant-caps:normal;font-variant-ligatures:normal;font-variant-numeric:normal;font-variant-position:normal;isolation:auto;mix-blend-mode:normal;shape-padding:0;text-decoration-color:#fff;text-decoration-line:none;text-decoration-style:solid;text-indent:0;text-orientation:mixed;text-transform:none;white-space:normal"/>
            <path transform="matrix(.26458 0 0 .26458 -6.679 32.496)" d="m188.13 232.97a68.892 68.892 0 0 1 0.75781 14.096 68.892 68.892 0 0 1-7.1602 26.982l101.37 16.281 19.924-38.908-114.89-18.451zm173.74 27.9-19.926 38.912 239.51 38.467a68.892 68.892 0 0 1-0.69531-13.719 68.892 68.892 0 0 1 7.3496-27.324l-226.24-36.336z" color="#fff" color-rendering="auto" dominant-baseline="auto" image-rendering="auto" solid-color="#fff" style="font-feature-settings:normal;font-variant-alternates:normal;font-variant-caps:normal;font-variant-ligatures:normal;font-variant-numeric:normal;font-variant-position:normal;isolation:auto;mix-blend-mode:normal;shape-padding:0;text-decoration-color:#fff;text-decoration-line:none;text-decoration-style:solid;text-indent:0;text-orientation:mixed;text-transform:none;white-space:normal"/>
        </g>
        <g transform="translate(6.679 -32.496)">
            <circle transform="rotate(3.1178)" cx="106.27" cy="51.536" r="16.571"/>
            <circle transform="rotate(3.1178)" cx="171.43" cy="110.19" r="16.571"/>
            <circle transform="rotate(3.1178)" cx="135.76" cy="190.28" r="16.571"/>
            <circle transform="rotate(3.1178)" cx="48.559" cy="181.11" r="16.571"/>
            <circle transform="rotate(3.1178)" cx="30.329" cy="95.367" r="16.571"/>
        </g>
    </symbol>
    <symbol id="matrix" viewBox="0 0 36 32">
        <path d="M34 28.161c0 1.422 0.813 2.653 2 3.256v0.498c-0.332 0.045-0.671 0.070-1.016 0.070-2.125 0-4.042-0.892-5.398-2.321-0.819 0.218-1.688 0.336-2.587 0.336-4.971 0-9-3.582-9-8s4.029-8 9-8c4.971 0 9 3.582 9 8 0 1.73-0.618 3.331-1.667 4.64-0.213 0.463-0.333 0.979-0.333 1.522zM16 0c8.702 0 15.781 5.644 15.995 12.672-1.537-0.685-3.237-1.047-4.995-1.047-2.986 0-5.807 1.045-7.942 2.943-2.214 1.968-3.433 4.607-3.433 7.432 0 1.396 0.298 2.747 0.867 3.993-0.163 0.004-0.327 0.007-0.492 0.007-0.849 0-1.682-0.054-2.495-0.158-3.437 3.437-7.539 4.053-11.505 4.144v-0.841c2.142-1.049 4-2.961 4-5.145 0-0.305-0.024-0.604-0.068-0.897-3.619-2.383-5.932-6.024-5.932-10.103 0-7.18 7.163-13 16-13z"/>
    </symbol>
    <symbol id="mail" viewBox="0 0 48 48">
        <path d="M0 38c0 2.21 1.79 4 4 4h40c2.21 0 4-1.79 4-4l-0-27c0-2.21-1.79-4-4-4l-40 0c-2.21 0-4 1.79-4 4v27zM14.72 24.53l-9.15-9.21c-0.759-0.76-0.759-1.99 0-2.75 0.761-0.76 1.991-0.76 2.75 0l14.6 14.619c0.59 0.58 1.561 0.58 2.141 0l14.619-14.619c0.76-0.76 1.99-0.76 2.75 0s0.76 1.99 0 2.75l-9.16 9.21 9.16 9.149c0.76 0.76 0.76 1.99 0 2.75s-1.99 0.76-2.75 0l-9.15-9.14c0 0-2.859 2.91-3.379 3.43-0.811 0.791-1.931 1.281-3.151 1.281-1.24 0-2.36-0.5-3.17-1.311-0.53-0.52-3.37-3.399-3.37-3.399l-9.141 9.14c-0.759 0.76-1.989 0.76-2.75 0-0.759-0.76-0.759-1.99 0-2.75l9.151-9.15z"/>
    </symbol>
    <symbol id="twitch" viewBox="0 0 28 28">
        <path d="M14 6.781v6.781h-2.266v-6.781h2.266zM20.219 6.781v6.781h-2.266v-6.781h2.266zM20.219 18.656l3.953-3.969v-12.422h-18.656v16.391h5.094v3.391l3.391-3.391h6.219zM26.437 0v15.828l-6.781 6.781h-5.094l-3.391 3.391h-3.391v-3.391h-6.219v-18.094l1.703-4.516h23.172z"/>
    </symbol>
    <symbol id="youtube" viewBox="0 0 28 28">
        <path d="M11.109 17.625l7.562-3.906-7.562-3.953v7.859zM14 4.156c5.891 0 9.797 0.281 9.797 0.281 0.547 0.063 1.75 0.063 2.812 1.188 0 0 0.859 0.844 1.109 2.781 0.297 2.266 0.281 4.531 0.281 4.531v2.125s0.016 2.266-0.281 4.531c-0.25 1.922-1.109 2.781-1.109 2.781-1.062 1.109-2.266 1.109-2.812 1.172 0 0-3.906 0.297-9.797 0.297v0c-7.281-0.063-9.516-0.281-9.516-0.281-0.625-0.109-2.031-0.078-3.094-1.188 0 0-0.859-0.859-1.109-2.781-0.297-2.266-0.281-4.531-0.281-4.531v-2.125s-0.016-2.266 0.281-4.531c0.25-1.937 1.109-2.781 1.109-2.781 1.062-1.125 2.266-1.125 2.812-1.188 0 0 3.906-0.281 9.797-0.281v0z"/>
    </symbol>
    <symbol id="steam" viewBox="0 0 24 28">
        <path d="M19.406 10.109c0-1.656-1.359-3.016-3.031-3.016-1.656 0-3.016 1.359-3.016 3.016 0 1.672 1.359 3.016 3.016 3.016 1.672 0 3.031-1.344 3.031-3.016zM9.875 19.297c0 1.719-1.375 3.094-3.094 3.094-1.188 0-2.219-0.672-2.734-1.656 0.516 0.203 1.016 0.406 1.531 0.625 1.25 0.5 2.688-0.109 3.203-1.375 0.5-1.25-0.109-2.688-1.375-3.187l-1.281-0.516c0.203-0.047 0.438-0.078 0.656-0.078 1.719 0 3.094 1.375 3.094 3.094zM24 6.5v15c0 2.484-2.016 4.5-4.5 4.5h-15c-2.484 0-4.5-2.016-4.5-4.5v-2.391l2.688 1.078c0.406 1.891 2.094 3.313 4.094 3.313 2.187 0 3.984-1.672 4.188-3.797l5.391-3.938c3.125 0 5.641-2.531 5.641-5.625 0-3.125-2.516-5.641-5.641-5.641-3.078 0-5.594 2.5-5.625 5.578l-3.516 5.031c-0.141-0.016-0.281-0.016-0.438-0.016-0.781 0-1.516 0.203-2.141 0.578l-4.641-1.859v-7.313c0-2.484 2.016-4.5 4.5-4.5h15c2.484 0 4.5 2.016 4.5 4.5zM20.141 10.141c0 2.078-1.687 3.766-3.781 3.766-2.078 0-3.766-1.687-3.766-3.766 0-2.094 1.687-3.781 3.766-3.781 2.094 0 3.781 1.687 3.781 3.781z"/>
    </symbol>
    <symbol id="discord" viewBox="0 0 32 32">
        <path d="M26.963 0c1.875 0 3.387 1.516 3.476 3.3v28.7l-3.569-3.031-1.96-1.784-2.139-1.864 0.893 2.94h-18.717c-1.869 0-3.387-1.42-3.387-3.301v-21.653c0-1.784 1.52-3.303 3.393-3.303l22.009-0.004zM18.805 7.577h-0.040l-0.269 0.267c2.764 0.8 4.101 2.049 4.101 2.049-1.781-0.891-3.387-1.336-4.992-1.516-1.16-0.18-2.32-0.085-3.3 0h-0.267c-0.627 0-1.96 0.267-3.747 0.98-0.623 0.271-0.98 0.448-0.98 0.448s1.336-1.336 4.28-2.049l-0.18-0.18s-2.229-0.085-4.636 1.693c0 0-2.407 4.192-2.407 9.36 0 0 1.333 2.32 4.991 2.408 0 0 0.533-0.711 1.073-1.336-2.053-0.624-2.853-1.872-2.853-1.872s0.179 0.088 0.447 0.267h0.080c0.040 0 0.059 0.020 0.080 0.040v0.008c0.021 0.021 0.040 0.040 0.080 0.040 0.44 0.181 0.88 0.36 1.24 0.533 0.621 0.269 1.42 0.537 2.4 0.715 1.24 0.18 2.661 0.267 4.28 0 0.8-0.18 1.6-0.356 2.4-0.713 0.52-0.267 1.16-0.533 1.863-0.983 0 0-0.8 1.248-2.94 1.872 0.44 0.621 1.060 1.333 1.060 1.333 3.659-0.080 5.080-2.4 5.16-2.301 0-5.16-2.42-9.36-2.42-9.36-2.18-1.619-4.22-1.68-4.58-1.68l0.075-0.027zM19.029 13.461c0.937 0 1.693 0.8 1.693 1.78 0 0.987-0.76 1.787-1.693 1.787s-1.693-0.8-1.693-1.779c0.003-0.987 0.764-1.784 1.693-1.784zM12.972 13.461c0.933 0 1.688 0.8 1.688 1.78 0 0.987-0.76 1.787-1.693 1.787s-1.693-0.8-1.693-1.779c0-0.987 0.76-1.784 1.693-1.784z"/>
    </symbol>
    <symbol id="reddit" viewBox="0 0 28 28">
        <path d="M28 13.219c0 1.219-0.688 2.266-1.703 2.781 0.125 0.484 0.187 0.984 0.187 1.5 0 4.937-5.578 8.937-12.453 8.937-6.859 0-12.437-4-12.437-8.937 0-0.5 0.063-1 0.172-1.469-1.047-0.516-1.766-1.578-1.766-2.812 0-1.719 1.391-3.109 3.109-3.109 0.891 0 1.687 0.375 2.266 0.984 2.109-1.469 4.922-2.422 8.047-2.531l1.813-8.141c0.063-0.281 0.359-0.469 0.641-0.406l5.766 1.266c0.375-0.75 1.172-1.281 2.078-1.281 1.297 0 2.344 1.047 2.344 2.328 0 1.297-1.047 2.344-2.344 2.344-1.281 0-2.328-1.047-2.328-2.328l-5.219-1.156-1.625 7.375c3.141 0.094 5.984 1.031 8.109 2.5 0.562-0.594 1.359-0.953 2.234-0.953 1.719 0 3.109 1.391 3.109 3.109zM6.531 16.328c0 1.297 1.047 2.344 2.328 2.344 1.297 0 2.344-1.047 2.344-2.344 0-1.281-1.047-2.328-2.344-2.328-1.281 0-2.328 1.047-2.328 2.328zM19.187 21.875c0.234-0.234 0.234-0.578 0-0.812-0.219-0.219-0.578-0.219-0.797 0-0.938 0.953-2.953 1.281-4.391 1.281s-3.453-0.328-4.391-1.281c-0.219-0.219-0.578-0.219-0.797 0-0.234 0.219-0.234 0.578 0 0.812 1.484 1.484 4.344 1.594 5.187 1.594s3.703-0.109 5.187-1.594zM19.141 18.672c1.281 0 2.328-1.047 2.328-2.344 0-1.281-1.047-2.328-2.328-2.328-1.297 0-2.344 1.047-2.344 2.328 0 1.297 1.047 2.344 2.344 2.344z"/>
    </symbol>
    <symbol id="xmpp" viewBox="0 0 24 24">
        <path d="M 11.9983,15.3971C 9.7452,13.0896 8,9.5448 8,6C 1.99103,4.001 8,6 2.00042,4.0034C 2.00042,9.6488 6.33161,14.1142 10.5467,16.6577C 9.37655,17.5031 8.14715,17.9966 7,17.9966C 7,18.9763 7,17.9966 7,18.9966C 8.19852,18.9966 10.0255,18.4579 11.9966,17.4614C 13.9704,18.4601 15.8001,19 17,19C 17,18 17,18.9798 17,18C 15.8512,18 14.6198,17.5051 13.4482,16.6573C 17.6649,14.1145 21.9996,9.6477 21.9996,4C 16,5.9966 22.009,3.9975 16,5.9966C 16,9.5431 14.2531,13.0896 11.9983,15.3971 Z "/>
    </symbol>
    <symbol id="github" viewBox="0 0 24 28">
        <path d="M12 2c6.625 0 12 5.375 12 12 0 5.297-3.437 9.797-8.203 11.391-0.609 0.109-0.828-0.266-0.828-0.578 0-0.391 0.016-1.687 0.016-3.297 0-1.125-0.375-1.844-0.812-2.219 2.672-0.297 5.484-1.313 5.484-5.922 0-1.313-0.469-2.375-1.234-3.219 0.125-0.313 0.531-1.531-0.125-3.187-1-0.313-3.297 1.234-3.297 1.234-0.953-0.266-1.984-0.406-3-0.406s-2.047 0.141-3 0.406c0 0-2.297-1.547-3.297-1.234-0.656 1.656-0.25 2.875-0.125 3.187-0.766 0.844-1.234 1.906-1.234 3.219 0 4.594 2.797 5.625 5.469 5.922-0.344 0.313-0.656 0.844-0.766 1.609-0.688 0.313-2.438 0.844-3.484-1-0.656-1.141-1.844-1.234-1.844-1.234-1.172-0.016-0.078 0.734-0.078 0.734 0.781 0.359 1.328 1.75 1.328 1.75 0.703 2.141 4.047 1.422 4.047 1.422 0 1 0.016 1.937 0.016 2.234 0 0.313-0.219 0.688-0.828 0.578-4.766-1.594-8.203-6.094-8.203-11.391 0-6.625 5.375-12 12-12zM4.547 19.234c0.031-0.063-0.016-0.141-0.109-0.187-0.094-0.031-0.172-0.016-0.203 0.031-0.031 0.063 0.016 0.141 0.109 0.187 0.078 0.047 0.172 0.031 0.203-0.031zM5.031 19.766c0.063-0.047 0.047-0.156-0.031-0.25-0.078-0.078-0.187-0.109-0.25-0.047-0.063 0.047-0.047 0.156 0.031 0.25 0.078 0.078 0.187 0.109 0.25 0.047zM5.5 20.469c0.078-0.063 0.078-0.187 0-0.297-0.063-0.109-0.187-0.156-0.266-0.094-0.078 0.047-0.078 0.172 0 0.281s0.203 0.156 0.266 0.109zM6.156 21.125c0.063-0.063 0.031-0.203-0.063-0.297-0.109-0.109-0.25-0.125-0.313-0.047-0.078 0.063-0.047 0.203 0.063 0.297 0.109 0.109 0.25 0.125 0.313 0.047zM7.047 21.516c0.031-0.094-0.063-0.203-0.203-0.25-0.125-0.031-0.266 0.016-0.297 0.109s0.063 0.203 0.203 0.234c0.125 0.047 0.266 0 0.297-0.094zM8.031 21.594c0-0.109-0.125-0.187-0.266-0.172-0.141 0-0.25 0.078-0.25 0.172 0 0.109 0.109 0.187 0.266 0.172 0.141 0 0.25-0.078 0.25-0.172zM8.937 21.438c-0.016-0.094-0.141-0.156-0.281-0.141-0.141 0.031-0.234 0.125-0.219 0.234 0.016 0.094 0.141 0.156 0.281 0.125s0.234-0.125 0.219-0.219z"/>
    </symbol>
    <symbol id="gitlab" viewBox="0 0 28 28">
        <path d="M1.625 11.031l12.375 15.859-13.563-9.844c-0.375-0.281-0.531-0.766-0.391-1.203l1.578-4.813zM8.844 11.031h10.313l-5.156 15.859zM5.75 1.469l3.094 9.562h-7.219l3.094-9.562c0.172-0.484 0.859-0.484 1.031 0zM26.375 11.031l1.578 4.813c0.141 0.438-0.016 0.922-0.391 1.203l-13.563 9.844 12.375-15.859zM26.375 11.031h-7.219l3.094-9.562c0.172-0.484 0.859-0.484 1.031 0z"/>
    </symbol>
</svg>
