<?xml version="1.0" standalone="no"?>
<!DOCTYPE svg PUBLIC "-//W3C//DTD SVG 20010904//EN" "http://www.w3.org/TR/2001/REC-SVG-20010904/DTD/svg10.dtd">
<svg version="1.0" xmlns="http://www.w3.org/2000/svg" width="200.000000pt" height="200.000000pt" viewBox="0 0 200.000000 200.000000" preserveAspectRatio="xMidYMid meet">
	<metadata>
		Created by potrace 1.15, written by Peter Selinger 2001-2017
	</metadata>
	<g transform="translate(0.000000,200.000000) scale(0.100000,-0.100000)" fill="#ffffff" stroke="none">
		<path d="M752 1728 c-26 -43 -42 -102 -43 -158 0 -43 -3 -47 -49 -76 l-48 -31
-59 19 c-94 32 -193 15 -193 -34 0 -19 153 -166 198 -191 67 -36 306 -127 336
-127 13 0 27 7 30 16 10 27 7 307 -5 370 -11 62 -68 195 -96 226 -24 27 -49
22 -71 -14z" />
		<path d="M1134 1460 c-28 -5 -70 -18 -93 -28 l-43 -18 1 -116 c2 -135 -9 -189
-46 -217 -38 -31 -78 -26 -207 24 -64 25 -123 45 -130 45 -20 0 -235 -219
-242 -246 -14 -54 24 -58 98 -10 63 40 168 93 219 111 31 11 40 11 58 -1 30
-21 26 -43 -20 -123 -41 -72 -109 -230 -109 -255 0 -20 27 -38 47 -31 10 3 38
33 63 66 97 131 290 285 452 362 103 49 235 91 288 91 41 1 45 -1 45 -23 0
-20 -11 -27 -93 -56 -221 -79 -395 -235 -459 -413 -41 -113 -23 -314 30 -346
16 -9 25 -4 59 37 52 61 105 97 207 142 214 94 355 221 406 364 45 128 38 255
-19 376 -41 86 -88 141 -161 189 -101 67 -235 96 -351 76z m1 -927 c22 -11 52
-23 68 -27 15 -3 27 -10 27 -14 0 -4 -28 -20 -63 -37 -34 -16 -84 -51 -111
-77 -35 -34 -53 -45 -60 -38 -16 16 -14 228 3 268 l13 32 42 -44 c22 -24 59
-52 81 -63z" />
	</g>
</svg>
